<?xml version="1.0" standalone="no"?>
<!DOCTYPE svg PUBLIC "-//W3C//DTD SVG 20010904//EN"
 "http://www.w3.org/TR/2001/REC-SVG-20010904/DTD/svg10.dtd">
<svg version="1.0" xmlns="http://www.w3.org/2000/svg"
 width="100.000000pt" height="100.000000pt" viewBox="0 0 100.000000 100.000000"
 preserveAspectRatio="xMidYMid meet">

<g transform="translate(0.000000,100.000000) scale(0.100000,-0.100000)"
fill="#000000" stroke="none">
<path d="M425 881 c-222 -58 -298 -306 -175 -567 56 -117 163 -204 250 -204
87 0 194 87 250 205 110 231 60 461 -117 545 -50 23 -158 34 -208 21z m-62
-271 c12 -14 39 -38 60 -54 20 -16 37 -35 37 -43 0 -7 -11 -35 -25 -62 -31
-61 -79 -103 -114 -99 -22 3 -29 12 -45 58 -37 108 -32 230 12 299 l15 25 19
-50 c10 -27 28 -60 41 -74z m373 48 c20 -62 15 -165 -13 -248 -15 -46 -22 -55
-44 -58 -35 -4 -83 38 -114 99 -14 27 -25 55 -25 62 0 8 17 27 38 43 55 43 80
74 99 126 21 56 34 51 59 -24z"/>
</g>
</svg>
